REM DIRINDEX 1\2\3,1\2\4,1\2\5,1\2\6
REM DIRNAME cjc157,folder01,folder02,folder03,folder04,folder05
TITLE ""
FILE "098 098.mp3" MP3
  TRACK 01 AUDIO
    TITLE "0:"
    INDEX 01 00:00:00
  TRACK 02 AUDIO
    TITLE "3:cjc157_3697"
    INDEX 01 00:00:11
  TRACK 03 AUDIO
    TITLE "0:"
    INDEX 01 00:00:74
  TRACK 04 AUDIO
    TITLE "4:cjc157_3698"
    INDEX 01 00:01:44
  TRACK 05 AUDIO
    TITLE "0:"
    INDEX 01 00:02:73
  TRACK 06 AUDIO
    TITLE "5:cjc157_3699"
    INDEX 01 00:03:39
  TRACK 07 AUDIO
    TITLE "0:"
    INDEX 01 00:05:50
  TRACK 08 AUDIO
    TITLE "3:cjc157_3700"
    INDEX 01 00:06:18
  TRACK 09 AUDIO
    TITLE "0:"
    INDEX 01 00:07:66
  TRACK 10 AUDIO
    TITLE "4:cjc157_3701"
    INDEX 01 00:08:36
  TRACK 11 AUDIO
    TITLE "0:"
    INDEX 01 00:09:40
  TRACK 12 AUDIO
    TITLE "5:cjc157_3702"
    INDEX 01 00:10:10
  TRACK 13 AUDIO
    TITLE "0:"
    INDEX 01 00:14:19
  TRACK 14 AUDIO
    TITLE "3:cjc157_3703"
    INDEX 01 00:14:66
  TRACK 15 AUDIO
    TITLE "0:"
    INDEX 01 00:16:16
  TRACK 16 AUDIO
    TITLE "4:cjc157_3704"
    INDEX 01 00:16:63
  TRACK 17 AUDIO
    TITLE "0:"
    INDEX 01 00:18:15
  TRACK 18 AUDIO
    TITLE "5:cjc157_3705"
    INDEX 01 00:18:60
  TRACK 19 AUDIO
    TITLE "0:"
    INDEX 01 00:21:17
  TRACK 20 AUDIO
    TITLE "5:cjc157_3706"
    INDEX 01 00:21:57
  TRACK 21 AUDIO
    TITLE "0:"
    INDEX 01 00:25:11
  TRACK 22 AUDIO
    TITLE "3:cjc157_3707"
    INDEX 01 00:25:54
  TRACK 23 AUDIO
    TITLE "0:"
    INDEX 01 00:26:58
  TRACK 24 AUDIO
    TITLE "4:cjc157_3708"
    INDEX 01 00:27:30
  TRACK 25 AUDIO
    TITLE "0:"
    INDEX 01 00:28:37
  TRACK 26 AUDIO
    TITLE "5:cjc157_3709"
    INDEX 01 00:29:09
  TRACK 27 AUDIO
    TITLE "0:"
    INDEX 01 00:31:57
  TRACK 28 AUDIO
    TITLE "3:cjc157_3710"
    INDEX 01 00:32:29
  TRACK 29 AUDIO
    TITLE "0:"
    INDEX 01 00:33:26
  TRACK 30 AUDIO
    TITLE "4:cjc157_3711"
    INDEX 01 00:33:71
  TRACK 31 AUDIO
    TITLE "0:"
    INDEX 01 00:34:73
  TRACK 32 AUDIO
    TITLE "5:cjc157_3712"
    INDEX 01 00:35:45
  TRACK 33 AUDIO
    TITLE "0:"
    INDEX 01 00:37:57
  TRACK 34 AUDIO
    TITLE "3:cjc157_3713"
    INDEX 01 00:38:26
  TRACK 35 AUDIO
    TITLE "0:"
    INDEX 01 00:39:41
  TRACK 36 AUDIO
    TITLE "4:cjc157_3714"
    INDEX 01 00:40:13
  TRACK 37 AUDIO
    TITLE "0:"
    INDEX 01 00:41:38
  TRACK 38 AUDIO
    TITLE "5:cjc157_3715"
    INDEX 01 00:42:10
  TRACK 39 AUDIO
    TITLE "0:"
    INDEX 01 00:45:37
  TRACK 40 AUDIO
    TITLE "5:cjc157_3716"
    INDEX 01 00:46:06
  TRACK 41 AUDIO
    TITLE "0:"
    INDEX 01 00:48:26
  TRACK 42 AUDIO
    TITLE "3:cjc157_3717"
    INDEX 01 00:48:69
  TRACK 43 AUDIO
    TITLE "0:"
    INDEX 01 00:50:15
  TRACK 44 AUDIO
    TITLE "4:cjc157_3718"
    INDEX 01 00:50:64
  TRACK 45 AUDIO
    TITLE "0:"
    INDEX 01 00:52:08
  TRACK 46 AUDIO
    TITLE "5:cjc157_3719"
    INDEX 01 00:52:51
  TRACK 47 AUDIO
    TITLE "0:"
    INDEX 01 00:55:22
  TRACK 48 AUDIO
    TITLE "5:cjc157_3720"
    INDEX 01 00:55:65
  TRACK 49 AUDIO
    TITLE "0:"
    INDEX 01 00:57:58
  TRACK 50 AUDIO
    TITLE "3:cjc157_3721"
    INDEX 01 00:58:26
  TRACK 51 AUDIO
    TITLE "0:"
    INDEX 01 00:59:41
  TRACK 52 AUDIO
    TITLE "4:cjc157_3722"
    INDEX 01 01:00:13
  TRACK 53 AUDIO
    TITLE "0:"
    INDEX 01 01:01:34
  TRACK 54 AUDIO
    TITLE "5:cjc157_3723"
    INDEX 01 01:02:06
  TRACK 55 AUDIO
    TITLE "0:"
    INDEX 01 01:03:71
  TRACK 56 AUDIO
    TITLE "5:cjc157_3724"
    INDEX 01 01:04:45
  TRACK 57 AUDIO
    TITLE "0:"
    INDEX 01 01:06:38
  TRACK 58 AUDIO
    TITLE "3:cjc157_3725"
    INDEX 01 01:07:14
  TRACK 59 AUDIO
    TITLE "0:"
    INDEX 01 01:08:31
  TRACK 60 AUDIO
    TITLE "4:cjc157_3726"
    INDEX 01 01:09:01
  TRACK 61 AUDIO
    TITLE "0:"
    INDEX 01 01:12:26
  TRACK 62 AUDIO
    TITLE "5:cjc157_3727"
    INDEX 01 01:12:68
  TRACK 63 AUDIO
    TITLE "0:"
    INDEX 01 01:16:09
  TRACK 64 AUDIO
    TITLE "5:cjc157_3728"
    INDEX 01 01:16:54
  TRACK 65 AUDIO
    TITLE "0:"
    INDEX 01 01:18:45
  TRACK 66 AUDIO
    TITLE "5:cjc157_3729"
    INDEX 01 01:19:17
  TRACK 67 AUDIO
    TITLE "0:"
    INDEX 01 01:20:42
  TRACK 68 AUDIO
    TITLE "3:cjc157_3730"
    INDEX 01 01:21:12
  TRACK 69 AUDIO
    TITLE "0:"
    INDEX 01 01:22:29
  TRACK 70 AUDIO
    TITLE "4:cjc157_3731"
    INDEX 01 01:23:01
  TRACK 71 AUDIO
    TITLE "0:"
    INDEX 01 01:23:62
  TRACK 72 AUDIO
    TITLE "5:cjc157_3732"
    INDEX 01 01:24:47
  TRACK 73 AUDIO
    TITLE "0:"
    INDEX 01 01:26:38
